<svg width="311" height="278" viewBox="0 0 311 278" fill="none" xmlns="http://www.w3.org/2000/svg">
<path d="M3.59599 74L3.59599 274.968M3.59599 274.968L155.5 274.968M3.59599 274.968L6.19199 272.373M3.59599 274.968L1.00001 277.564M155.5 274.968L155.5 254.5M155.5 274.968L158.096 272.372M155.5 274.968L152.904 277.564" stroke="white" stroke-width="0.5"/>
<path d="M307.5 84.5001L307.5 3.59612M307.5 3.59612L155.595 3.59641M307.5 3.59612L304.904 6.19206M307.5 3.59612L310.096 1.00011M155.595 3.59641L155.595 120.5M155.595 3.59641L152.999 6.19236M155.595 3.59641L158.191 1.0004" stroke="white" stroke-width="0.5"/>
<path d="M223.5 84.5001L223.5 53.5961M223.5 53.5961L155.595 53.5964M223.5 53.5961L220.904 56.1921M223.5 53.5961L226.096 51.0001M155.595 53.5964L155.595 120.5M155.595 53.5964L152.999 56.1924M155.595 53.5964L158.191 51.0004" stroke="white" stroke-width="0.5"/>
<path d="M143.325 224.489C142.534 235.887 142.423 245.35 143.952 246.745C144.907 247.617 147.879 246.086 149.015 244.691C151.479 241.738 152.484 234 152.678 230.5M143.325 224.489C141.532 229.095 136.807 237.071 132.258 232.132C131.654 231.477 131.344 230.497 131.277 229.266M143.325 224.489C144.054 213.998 145.358 201.868 146.489 192.877M146.489 192.877C147.358 185.967 147.339 184.819 147.664 183.789M146.489 192.877C140.731 202.44 130.837 221.225 131.277 229.266M147.664 183.789C146.359 182.453 146.164 179.953 146.329 178.015M147.664 183.789C148.23 184.368 149.004 184.728 150.048 184.728C150.936 184.728 151.821 184.376 152.678 183.789M131.277 229.266C128.867 230.497 124.089 231.226 123.307 224.951M146.329 178.015C138.554 189.978 122.863 216.463 123.217 223.883C123.235 224.26 123.265 224.615 123.307 224.951M146.329 178.015C146.366 177.574 146.423 177.162 146.489 176.8M123.307 224.951C121.02 226.15 116.189 226.736 115.161 219.489C115.084 218.95 115.113 218.311 115.235 217.586M115.235 217.586C116.758 208.56 130.847 188.475 139.289 177.627M115.235 217.586C112.953 219.775 107.763 222.202 105.256 214.394C104.932 213.385 105.004 212.092 105.399 210.582M139.289 177.627C138.427 175.747 138.281 172.85 138.422 170.67M139.289 177.627C140.261 179.748 142.143 180.577 145.547 177.627C145.873 177.344 146.187 177.069 146.489 176.8M105.399 210.582C108.059 200.411 124.038 181.675 133.542 171.752M105.399 210.582C102.994 211.673 98.0271 212.135 97.4 205.255C97.3536 204.745 97.4268 204.147 97.6066 203.472M133.542 171.752C130.461 170.873 130.248 165.845 130.667 162.783M133.542 171.752C134.444 172.01 135.593 171.911 137.043 171.303C137.521 171.103 137.98 170.891 138.422 170.67M97.6066 203.472C99.8534 195.035 120.789 172.631 130.667 162.783M97.6066 203.472C94.6781 203.428 89.2712 201.583 91.0711 194.552M130.667 162.783C128.459 163.11 126.493 162.832 125.343 161.844C124.578 161.186 124.086 160.418 123.789 159.627M130.667 162.783C134.599 162.201 139.301 159.699 141.544 155.864M91.0711 194.552C87.9236 194.965 81.9781 193.943 83.3761 186.545C83.4986 185.897 83.7973 185.172 84.2487 184.384M91.0711 194.552C92.8308 187.677 113.169 168.798 123.789 159.627M84.2487 184.384C88.9499 176.175 110.204 161.085 121.165 154M84.2487 184.384C81.8215 185.455 77.0476 185.699 77.3687 178.106C77.398 177.413 77.6566 176.649 78.1129 175.828M78.1129 175.828C82.6523 167.661 106.76 153.841 119.357 147.422M78.1129 175.828C76.0165 175.887 71.7352 174.149 71.3813 166.729C71.3302 165.657 71.9048 164.486 72.9701 163.251M72.9701 163.251C79.28 155.934 102.806 146.371 115.519 141.949M72.9701 163.251C70.3712 163.179 65.5227 161.186 66.9207 153.788C67.0401 153.156 67.3695 152.523 67.8812 151.892M115.519 141.949C114.86 139.77 115.97 138.643 116.607 138.352M115.519 141.949C116.606 144.112 118.691 145.098 121.859 144.777M67.8812 151.892C73.3592 145.14 99.7419 138.635 113.369 136.045M67.8812 151.892C65.1568 150.988 60.2223 147.873 62.2794 142.654C62.4889 142.122 62.9994 141.586 63.7638 141.051M113.369 136.045C112.308 133.5 113.27 131.354 113.883 130.6M113.369 136.045C114.19 137.535 115.333 138.21 116.607 138.352M63.7638 141.051C61.2732 137.793 57.7786 130.662 63.7253 128.202C64.3752 127.934 65.2792 127.669 66.3907 127.41M63.7638 141.051C70.3074 136.467 94.9565 131.545 108.864 129.515M66.3907 127.41C67.5257 127.145 68.8771 126.887 70.3953 126.635M66.3907 127.41C67.8969 127.19 69.2692 126.914 70.3953 126.635M66.3907 127.41C60.0324 128.339 51.287 128.274 48.597 123.27C47.389 121.022 52.2003 119.295 59.8523 117.99M70.3953 126.635C80.9951 124.878 97.7735 123.555 107.796 122.973M59.8523 117.99C60.9446 117.804 62.0949 117.626 63.2937 117.457M59.8523 117.99C61.0884 117.833 62.2476 117.651 63.2937 117.457M59.8523 117.99C49.5948 119.294 34.0426 118.856 33.8701 108.846C33.8096 105.336 38.4238 103.297 45.5216 102.254M63.2937 117.457C76.828 115.545 91.4015 114.45 104.031 114.246M104.031 114.246C104.031 110.243 107.298 108.886 107.298 108.886M104.031 114.246C104.03 118.249 109.511 119.47 109.998 119.505M45.5216 102.254C45.8381 102.208 46.1596 102.163 46.4858 102.121M45.5216 102.254C45.8609 102.213 46.1829 102.168 46.4858 102.121M45.5216 102.254C39.1481 103.031 26.6992 102.578 20.9916 95.1241C19.0877 92.6378 23.2881 91.2194 30.8121 90.5174M46.4858 102.121C62.2161 100.067 81.9992 101.574 98.0094 103.799M98.0094 103.799C98.0021 103.937 97.9983 104.078 97.9983 104.222C97.9983 109.833 106.315 108.747 107.298 108.886M98.0094 103.799C98.2873 98.5572 103.691 97.5306 103.691 97.5306M30.8121 90.5174C47.0448 89.0031 70.3886 90.1571 89.6394 91.783M30.8121 90.5174C24.6589 90.0052 11.7777 86.9258 9.47908 78.7057C8.77437 76.1856 13.7391 74.9941 21.8074 74.6683M89.6394 91.783C89.5238 91.4214 89.4442 91.0358 89.4063 90.6246C88.8568 84.6698 94.3734 84.141 95.9061 83.532M89.6394 91.783C91.1975 96.6571 99.2961 97.1675 100.091 97.3167C101.102 97.5062 102.354 97.5619 103.691 97.5306M21.8074 74.6683C40.0567 73.9313 74.1839 77.623 94.4999 80.3865M21.8074 74.6683C15.0192 73.5698 2.02917 69.3453 4.37543 61.2353C6.72168 53.1252 64.3792 65.0595 92.9146 72.0404M94.4999 80.3865C95.4303 77.2925 98.2294 77.4153 99.5126 77.8635M94.4999 80.3865C94.1564 81.4233 94.7535 82.4943 95.9061 83.532M92.9146 72.0404C92.526 74.6426 95.7453 75.8673 99.5126 77.8635M92.9146 72.0404C93.3033 69.4383 97.1814 69.3439 99.0834 69.9438M113.016 88.0369C111.308 87.3452 108.452 85.5175 105.652 81.6916C105.286 81.1907 105.018 80.7639 104.836 80.4029M113.016 88.0369C113.426 88.2031 113.77 88.3037 114.03 88.3507C113.71 88.2462 113.368 88.1402 113.016 88.0369ZM113.016 88.0369C109.667 87.0563 105.332 86.328 108.967 89.6452M108.967 89.6452C105.163 88.5215 98.7926 86.1309 95.9061 83.532M108.967 89.6452C110.018 90.6037 111.048 91.499 112.022 92.3149C114.771 94.6198 118.07 96.9647 118.07 96.9647C118.07 96.9647 111.145 93.9486 110.357 97.3167M124.598 121.985C123.503 122.024 120.967 121.293 117.366 118.008C116.954 117.631 116.646 117.281 116.43 116.956M124.598 121.985C124.725 121.981 124.833 121.966 124.921 121.943C124.816 121.956 124.708 121.97 124.598 121.985ZM124.598 121.985C122.994 122.209 120.955 122.734 120.111 123.615C119.439 124.315 119.524 125.241 121.184 126.419C121.765 126.831 122.323 127.178 122.856 127.467M128.537 128.68C128.667 128.633 128.795 128.589 128.919 128.549C128.814 128.597 128.686 128.642 128.537 128.68ZM128.537 128.68C125.877 129.64 122.018 131.875 125.343 134.157M128.537 128.68C127.522 128.943 125.503 128.905 122.856 127.467M125.343 134.157C128.831 136.551 131.953 136.574 133.078 136.286C131.95 137.912 130.354 140.535 129.892 142.25M125.343 134.157C123.347 136.061 119.61 138.686 116.607 138.352M99.0834 69.9438C95.3613 66.1598 91.7903 61.9915 89.6394 58.2097C83.8127 47.9649 122.207 75.112 129.26 103.232C136.312 131.352 147.704 140.76 161.326 144.318C171.214 146.901 173.563 153.279 176.096 160.5M99.0834 69.9438C101.46 72.3602 103.899 74.6199 106.068 76.5222C107.864 78.0967 109.475 79.4264 110.715 80.3974C107.912 79.0149 103.296 77.3449 104.836 80.4029M104.836 80.4029C103.354 79.771 101.407 78.8672 99.5126 77.8635M114.594 107.533C112.473 104.971 117.303 103.976 120.159 103.799C119.281 103.853 110.284 102.422 110.284 97.9977C110.284 97.7461 110.309 97.5198 110.357 97.3167M114.594 107.533C114.727 107.693 114.887 107.859 115.076 108.032C116.338 109.184 117.609 110.14 118.761 110.906C120.543 112.09 122.042 112.816 122.791 113.1C119.666 113.197 114.547 114.119 116.43 116.956M114.594 107.533C112.843 108.265 109.643 109.217 107.298 108.886M116.43 116.956C114.922 117.999 111.948 119.643 109.998 119.505M109.998 119.505C109.998 119.505 106.531 122.769 107.532 127C107.804 128.15 108.281 128.956 108.864 129.515M122.856 127.467C120.551 128.617 116.664 130.243 113.883 130.6M113.883 130.6C112.742 130.747 110.425 131.015 108.864 129.515M129.892 142.25C129.611 143.293 129.75 144 130.667 143.943C133.094 143.792 136.849 143.341 138.422 143.134C136.47 144.129 133.369 146.423 134.154 148.66C134.297 149.069 134.572 149.477 135.007 149.874M129.892 142.25C126.692 143.73 124.023 144.558 121.859 144.777M121.859 144.777C120.632 147.974 119.315 154.45 123.859 154.78M135.007 149.874C136.686 151.406 138.382 151.08 139.706 150.219C140.599 149.637 141.323 148.811 141.757 148.148C141.352 150.62 141.108 153.768 141.544 155.864M135.007 149.874C133.185 151.647 128.404 155.11 123.859 154.78M152.678 227C150.048 219.489 151.849 202.665 153.343 190.098M153.343 190.098C153.012 196.89 152.382 200.864 154.155 209.974M153.343 190.098C152.718 188.158 152.587 185.658 152.678 183.789M153.343 190.098C154.17 192.664 155.862 194.252 159.052 192.112M164.598 177.627C164.486 176.729 164.322 175.909 163.85 175.578C163.515 175.344 163.026 175.355 162.291 175.755C160.476 176.744 159.923 175.533 159.489 173.988M103.691 97.5306L110.357 97.3167M123.789 159.627C123.813 159.607 123.836 159.586 123.859 159.566M123.789 159.627C123.092 157.773 123.459 155.789 123.859 154.78M141.544 155.864C141.75 156.853 142.106 157.607 142.669 157.947C143.672 158.552 145.328 157.839 147.946 154.78C146.967 157.019 146.103 160.398 147.476 161.844M147.476 161.844C147.887 162.276 148.498 162.535 149.365 162.539C150.162 162.543 151.174 162.333 152.446 161.844C152.376 163.491 152.499 165.938 153.109 167.783C153.207 168.079 153.318 168.359 153.442 168.618M147.476 161.844C146.727 163.726 143.913 167.926 138.422 170.67M153.442 168.618C154.03 169.846 154.928 170.597 156.264 170.255C156.95 170.08 157.466 170.166 157.865 170.423C158.822 171.04 159.11 172.641 159.489 173.988M153.442 168.618C153.484 169.267 152.119 171.786 146.489 176.8M159.489 173.988C158.337 176.774 155.684 181.729 152.678 183.789" stroke="#FF6F43" stroke-width="0.5"/>
<path d="M178.345 159.789C178.345 159.789 184.543 154.652 181.395 143.731C178.729 134.478 172.01 117.968 170.021 113.143C169.646 112.235 169.314 111.31 169.123 110.346C166.908 99.1215 173.824 87.9261 185.129 84.8972C196.916 81.7388 209.011 88.6559 212.144 100.347L217.442 120.122L218.539 124.216C223.133 142.108 222.586 149.889 206.278 149.889L205.804 168.771M178.345 159.789C178.345 159.789 203.081 175.57 204.388 175.219C205.695 174.869 205.804 168.771 205.804 168.771M178.345 159.789C164.432 163.517 151.624 211.766 152.808 230.122C153.992 248.479 224.61 252.432 230.979 234.386C237.348 216.34 205.804 168.771 205.804 168.771" stroke="white"/>
<path d="M237.75 122.07H303.188M235.133 109.31L293.045 85.4249M231.207 96.5492L265.561 59.25M235.133 134.83L293.045 158.715M231.207 147.59L265.561 184.89" stroke="white" stroke-width="0.5"/>
<path d="M293.044 84.1175C293.044 85.5631 294.216 86.735 295.662 86.735C297.107 86.735 298.279 85.5631 298.279 84.1175C298.279 82.6719 297.107 81.5 295.662 81.5C294.216 81.5 293.044 82.6719 293.044 84.1175Z" stroke="#FF6F43"/>
<path d="M293.044 160.023C293.044 158.578 294.216 157.406 295.662 157.406C297.107 157.406 298.279 158.578 298.279 160.023C298.279 161.469 297.107 162.641 295.662 162.641C294.216 162.641 293.044 161.469 293.044 160.023Z" stroke="#FF6F43"/>
<path d="M264.908 57.2894C264.908 58.735 266.079 59.9069 267.525 59.9069C268.971 59.9069 270.143 58.735 270.143 57.2894C270.143 55.8438 268.971 54.6719 267.525 54.6719C266.079 54.6719 264.908 55.8438 264.908 57.2894Z" stroke="#FF6F43"/>
<path d="M264.908 186.851C264.908 185.406 266.079 184.234 267.525 184.234C268.971 184.234 270.143 185.406 270.143 186.851C270.143 188.297 268.971 189.469 267.525 189.469C266.079 189.469 264.908 188.297 264.908 186.851Z" stroke="#FF6F43"/>
<path d="M302.861 122.071C302.861 123.516 304.033 124.688 305.478 124.688C306.924 124.688 308.096 123.516 308.096 122.071C308.096 120.625 306.924 119.453 305.478 119.453C304.033 119.453 302.861 120.625 302.861 122.071Z" stroke="#FF6F43" stroke-width="0.5"/>
<path d="M302.861 122.07C302.861 120.624 304.033 119.453 305.478 119.453C306.924 119.453 308.096 120.624 308.096 122.07C308.096 123.516 306.924 124.688 305.478 124.688C304.033 124.688 302.861 123.516 302.861 122.07Z" stroke="#FF6F43"/>
</svg>
