<svg width="351" height="343" viewBox="0 0 351 343" fill="none" xmlns="http://www.w3.org/2000/svg">
<path d="M10.4457 259.813H31.2262M41.6164 259.813H62.3969M72.7871 259.813H93.5676M103.958 259.813H124.738M31.2262 262.174H10.4457M62.3969 262.174H41.6164M93.5676 262.174H72.7871M124.738 262.174H103.958M1 248.061V244.251L53.1268 244.147M1 248.061V341.801H133.658H259.339V198.043H53.0228L53.1268 244.147M1 248.061H133.658M133.762 244.147H119.071M53.1268 244.147H119.071M201.248 217.307H219.195M172.911 217.307H191.803M145.519 217.307H164.41M259.339 201.305H53.0311M137.018 217.307H119.071V244.147M109.625 244.147V217.307H90.7339V244.147M82.2328 244.147V217.307H63.3415V244.147M201.248 220.613H219.195M172.911 220.613H191.803M145.519 220.613H164.41M119.071 220.613H137.018M90.7339 220.613H109.625M63.3415 220.613H82.2328M228.641 217.307H246.588M228.641 220.613H246.588M1 326.405H36.8936M259.339 320.737H133.658L133.674 326.405H97.8182M1 293.345H133.658" stroke="white" stroke-width="0.5"/>
<path d="M36.8936 306.569H40.7013M36.8936 306.569V304.68H97.8182V306.569M36.8936 306.569V326.405V341.801H97.8182V326.405V306.569M97.8182 306.569H90.2026M67.3559 306.569V341.801M67.3559 306.569H74.9714M67.3559 306.569H59.7403M52.1247 306.569V341.801M52.1247 306.569H59.7403M52.1247 306.569H44.5091M82.587 306.569V341.801M82.587 306.569H90.2026M82.587 306.569H74.9714M90.2026 306.569V341.801M74.9714 306.569V341.801M59.7403 306.569V341.801M44.5091 306.569V341.801M44.5091 306.569H40.7013M40.7013 306.569V341.801M71.1637 306.569V341.801M55.9325 306.569V341.801M86.3948 306.569V341.801M94.0104 306.569V341.801M78.7792 306.569V341.801M63.5481 306.569V341.801M48.3169 306.569V341.801" stroke="#FF6F43" stroke-width="0.5"/>
<path d="M26.5034 244.199L36.7585 77.3895M36.7585 77.3895H80.019M36.7585 77.3895H36.211C33.3754 77.3895 31.0768 75.0909 31.0768 72.2553C31.0768 69.4198 33.3754 67.1211 36.211 67.1211H80.5665C83.402 67.1211 85.7007 69.4198 85.7007 72.2553C85.7007 75.0909 83.402 77.3895 80.5665 77.3895H80.019M85.7007 198.043L80.019 77.3895M36.3809 83.1787L80.3033 83.1787M36.3809 81.2896L80.3033 81.2896M36.3809 79.4005L80.3033 79.4005" stroke="#FF6F43" stroke-width="0.5"/>
<path d="M133.658 341.801H1V247.061V244.251L53.1268 244.147M133.658 341.801H259.339V198.043H53.0228L53.1268 244.147M133.658 341.801L133.701 301.374M53.1268 244.147H119.071M109.625 244.147V217.307H90.7339V244.147M82.2328 244.147V217.307H63.3415V244.147M119.071 244.147V217.307H137.018V301.374H133.701M119.071 244.147H133.762L133.701 301.374M133.658 320.737L133.674 326.405M10.4457 259.813H31.2262V280.593H10.4457V259.813ZM41.6164 259.813H62.3969V280.593H41.6164V259.813ZM72.7871 259.813H93.5676V280.593H72.7871V259.813ZM103.958 259.813H124.738V280.593H103.958V259.813ZM201.248 217.307H219.195V301.374H201.248V217.307ZM172.911 217.307H191.803V301.374H172.911V217.307ZM145.519 217.307H164.41V301.374H145.519V217.307ZM228.641 217.307H246.588V301.374H228.641V217.307Z" stroke="white"/>
<path d="M68.7661 61.2979C81.6645 55.0019 114.256 47.7929 141.437 69.3254C175.413 96.2409 277.342 178.403 336.328 105.683C395.315 32.9642 243.366 -41.6438 203.727 30.131C164.088 101.906 283.476 129.292 307.071 105.683" stroke="white" stroke-dasharray="10 10"/>
</svg>
