<svg width="300" height="251" viewBox="0 0 300 251" fill="none" xmlns="http://www.w3.org/2000/svg">
<path d="M29.9895 27.7167H174.937M29.9895 27.7167V223.283M29.9895 27.7167L1 1M29.9895 27.7167L33.2105 30.9227M174.937 27.7167V223.283M174.937 27.7167L171.716 30.9227M174.937 27.7167L205 1M174.937 223.283H29.9895M174.937 223.283L171.716 220.077M174.937 223.283L205 250M29.9895 223.283L33.2105 220.077M29.9895 223.283L1 250M1 1H205M1 1V250M205 1V250M205 250H1M33.2105 30.9227H171.716M33.2105 30.9227V220.077M171.716 30.9227V220.077M171.716 220.077H33.2105" stroke="white" stroke-width="0.5"/>
<path d="M174.938 27.7188H29.9902V223.285H174.938V27.7188Z" stroke="white"/>
<path d="M95.0618 59.0621H92.9396C92.9396 50.6248 96.4766 44 103.197 44C109.917 44 113.454 50.6248 113.454 59.0621H111.332M95.0618 59.0621C94.7081 54.7263 95.84 46.0547 103.197 46.0547M95.0618 59.0621V60.4683M103.197 46.0547V52.7342M103.197 46.0547C110.554 46.0547 111.686 54.7263 111.332 59.0621M95.0618 60.4683H101.782M95.0618 60.4683C95.0818 61.0846 95.15 61.8055 95.2799 62.5776M101.782 60.4683H103.197M101.782 60.4683L102.49 52.7342H103.197M103.197 60.4683V71.3665M103.197 60.4683H104.612M101.49 51.328H99.3673M100.367 53.4373V54.1404M95.2799 62.5776C95.9154 66.3571 98.0279 71.3665 103.197 71.3665M95.2799 62.5776C94.0917 63.3706 92.6801 64.5884 91.1712 66.2506M103.197 71.3665V118.706M103.197 71.3665C108.366 71.3665 110.478 66.3571 111.114 62.5776M103.197 52.7342H103.904L104.612 60.4683M103.197 118.706V135.166M103.197 118.706H76.3158M103.197 118.706H130.078M91.1712 66.2506C85.8675 67.4994 63.3544 77.8172 59.4809 140.671M91.1712 66.2506C88.315 69.3967 85.11 74.1349 82.41 80.5983M59.4809 140.671H60.0342M59.4809 140.671H64.0808M76.3158 118.706L72.4279 135.166H76.3158M76.3158 118.706C76.3158 111.527 76.9843 100.691 78.0907 95.0602M103.197 135.166H100.461M103.197 135.166H105.932M100.461 135.166L94.9195 170.26M100.461 135.166H88.3886M76.3158 135.166V154.576M76.3158 135.166H88.3886M68.8881 140.671C71.655 116.197 78.0907 95.0602 78.0907 95.0602M68.8881 140.671H66.6747M68.8881 140.671H64.0808M78.0907 95.0602C79.1796 89.5188 80.6926 84.7096 82.41 80.5983M76.3158 158.47V207.417H78.8487M76.3158 158.47V154.576M76.3158 158.47L65.7789 149.876M76.3158 154.576L65.7982 146.464M78.8487 207.417L66.1213 215.205L85.4892 214.092V207.417M78.8487 207.417H82.1689M85.4892 207.417H89.0517L94.4424 173.281M85.4892 207.417H82.1689M111.332 59.0621V60.4683M111.332 60.4683H104.612M111.332 60.4683C111.312 61.0846 111.244 61.8055 111.114 62.5776M104.904 51.328H107.027M106.027 53.4373V54.1404M111.114 62.5776C112.302 63.3706 113.714 64.5884 115.223 66.2506M115.223 66.2506C120.526 67.4994 143.039 77.8172 146.913 140.671H146.36M115.223 66.2506C118.079 69.3967 121.284 74.1349 123.984 80.5983M130.078 118.706L133.966 135.166H130.078M130.078 118.706C130.078 111.527 129.41 100.691 128.303 95.0602M105.932 135.166L113.927 185.791M105.932 135.166H118.005M130.078 135.166V198.988M130.078 135.166H118.005M128.303 95.0602C128.303 95.0602 134.739 116.197 137.506 140.671H139.719M128.303 95.0602C127.214 89.5188 125.701 84.7096 123.984 80.5983M127.545 207.417H130.078V202.4M127.545 207.417L140.273 215.205L120.905 214.092V207.417M127.545 207.417H124.225M120.905 207.417H117.342L114.545 189.708M120.905 207.417H124.225M138.612 147.901H136.399V166.257H153V147.901H150.787M138.612 147.901H150.787M138.612 147.901C138.612 146.528 139.163 145.283 140.055 144.378M150.787 147.901C150.787 145.531 149.147 143.545 146.946 143.027M139.719 140.671L140.055 144.378M139.719 140.671H143.039M146.36 140.671L146.913 142.895L146.946 143.027M146.36 140.671H143.039M140.055 144.378L140.273 146.789L141.933 145.12H147.466L146.946 143.027M66.6747 140.671L68.8881 148.847L65.7982 146.464M66.6747 140.671H64.0808M65.7982 146.464V149.876H64.0808M60.0342 140.671L59.4809 142.895L59.4481 143.027L58.9275 145.12L60.478 149.876H64.0808M60.0342 140.671H64.0808M130.078 202.4L146.723 216L147.939 213.583L136.205 203.994L130.078 198.988M130.078 202.4V198.988M114.545 189.708L113.927 185.791M114.545 189.708L94.4424 173.281M113.927 185.791L94.9195 170.26M94.4424 173.281L94.9195 170.26M59.4809 146.817C53.2478 156.421 43.6782 175.731 43 191.75L64.0808 149.876M88.3886 135.166L82.1689 207.417M118.005 135.166L124.225 207.417M143.039 140.671C142.025 127.356 136.793 96.7024 123.984 80.5983M64.0808 140.671C65.6746 123.812 71.9537 87.063 82.41 80.5983" stroke="#FF6F43" stroke-width="0.5"/>
<rect x="219.5" y="210.5" width="80" height="28" stroke="white"/>
<path d="M222 221H262.687M222 225.68H275M222 229.84H256.263M222 234H264.828" stroke="#FF6F43" stroke-width="0.5"/>
<path d="M222 215H241.881" stroke="#FF6F43" stroke-width="0.5"/>
</svg>
