<svg width="275" height="273" viewBox="0 0 275 273" fill="none" xmlns="http://www.w3.org/2000/svg">
<path d="M109.153 272.498H1V255.346M109.153 74.298V84.3033V251.058M149.65 74.298V38.0883M1 38.0883V28.083H149.65V38.0883M1 38.0883H149.65M1 38.0883V255.346M20.0577 58.3155H49.5972M49.5972 81.7045H20.0577M20.0577 98.3367H49.5972M49.5972 121.726H20.0577M20.0577 138.358H49.5972M49.5972 161.747H20.0577M60.0789 58.3155H89.6184M89.6184 81.7045H60.0789M60.0789 98.3367H89.6184M89.6184 121.726H60.0789M60.0789 138.358H89.6184M89.6184 161.747H60.0789M100.1 58.3155H129.64M100.1 81.7045H109.153M100.1 98.3367H109.153M100.1 121.726H109.153M100.1 138.358H109.153M100.1 161.747H109.153M109.153 163.869H100.1V136.236H109.153M109.153 123.848H100.1V96.2143H109.153M109.153 83.8268H100.1V56.1931H129.64V74.298M1 255.346H109.153M20.0577 178.379H49.5972M49.5972 201.768H20.0577M60.0789 178.379H89.6184M89.6184 201.768H60.0789M100.1 178.379H109.153M100.1 201.768H109.153M109.153 203.89H100.1V176.257H109.153M20.0577 218.4H49.5972M49.5972 241.789H20.0577M60.0789 218.4H89.6184M89.6184 241.789H60.0789M100.1 218.4H109.153M100.1 241.789H109.153M109.153 243.912H100.1V216.278H109.153M20.0577 56.1931H49.5972V83.8268H20.0577V56.1931ZM20.0577 96.2143H49.5972V123.848H20.0577V96.2143ZM20.0577 136.236H49.5972V163.869H20.0577V136.236ZM60.0789 56.1931H89.6184V83.8268H60.0789V56.1931ZM60.0789 96.2143H89.6184V123.848H60.0789V96.2143ZM60.0789 136.236H89.6184V163.869H60.0789V136.236ZM20.0577 176.257H49.5972V203.89H20.0577V176.257ZM60.0789 176.257H89.6184V203.89H60.0789V176.257ZM20.0577 216.278H49.5972V243.912H20.0577V216.278ZM60.0789 216.278H89.6184V243.912H60.0789V216.278Z" stroke="#FF6F43" stroke-width="0.5"/>
<path d="M109.153 272.498H1V255.346V38.0883V28.083H149.65V38.0883V74.298" stroke="#FF6F43"/>
<path d="M244.463 272.498H109.153V255.346V251.058M244.463 272.498H274.002V267.829H268.094V263.636H262.186V259.444H256.279V255.251H250.371V251.058H244.463M244.463 272.498V251.058M109.153 94.3032V74.2979H149.651H244.463V94.3032M109.153 94.3032H244.463M109.153 94.3032V251.058M244.463 94.3032V202.937M109.153 251.058H244.463M244.463 251.058V222.948M244.463 202.937H272.096V207.225H260.185M244.463 202.937V207.225M244.463 207.225H258.28M244.463 207.225V221.042M258.28 207.225L244.463 221.042M258.28 207.225H260.185M244.463 221.042V222.948M260.185 207.225L244.463 222.948M122.97 119.073H143.933M143.933 141.942H122.97M151.556 119.073H172.52V141.942H151.556M109.153 1.87855H149.651H244.463M109.153 1.87855L107.724 3.30788M109.153 1.87855L110.582 0.449219M109.153 1.87855V14.2661M244.463 1.87855L243.033 3.30788M244.463 1.87855L245.892 0.449219M244.463 1.87855V60.0046M122.97 116.214H143.933V144.801H122.97V116.214ZM151.556 116.214H172.52V144.801H151.556V116.214ZM180.143 116.214H201.106V144.801H180.143V116.214ZM208.73 116.214H229.693V144.801H208.73V116.214ZM180.143 119.073H201.106V141.942H180.143V119.073ZM208.73 119.073H229.693V141.942H208.73V119.073ZM122.97 161.471H143.933V190.058H122.97V161.471ZM151.556 161.471H172.52V190.058H151.556V161.471ZM180.143 161.471H201.106V190.058H180.143V161.471ZM208.73 161.471H229.693V190.058H208.73V161.471ZM122.97 164.33H143.933V187.199H122.97V164.33ZM151.556 164.33H172.52V187.199H151.556V164.33ZM180.143 164.33H201.106V187.199H180.143V164.33ZM208.73 164.33H229.693V187.199H208.73V164.33ZM122.97 206.728H143.933V235.314H122.97V206.728ZM151.556 206.728H172.52V235.314H151.556V206.728ZM180.143 206.728H201.106V235.314H180.143V206.728ZM208.73 206.728H229.693V235.314H208.73V206.728ZM122.97 209.586H143.933V232.456H122.97V209.586ZM151.556 209.586H172.52V232.456H151.556V209.586ZM180.143 209.586H201.106V232.456H180.143V209.586ZM208.73 209.586H229.693V232.456H208.73V209.586Z" stroke="white" stroke-width="0.5"/>
<path d="M244.462 202.937V84.3032V74.2979H149.65H109.152V84.3032V251.058V255.346V272.498H244.462V251.058V222.948V221.042V207.225M244.462 202.937V207.225M244.462 202.937H272.096V207.225H244.462" stroke="white"/>
</svg>
