<svg width="294" height="269" viewBox="0 0 294 269" fill="none" xmlns="http://www.w3.org/2000/svg">
<path d="M55.5845 39.7107H139.954" stroke="#FF6F43"/>
<path d="M55.5845 47.6523H160.798" stroke="#FF6F43"/>
<path d="M102.236 242.693H56.5771V190.086M102.236 242.693V238.723M102.236 242.693H123.576V240.708H119.606V238.723H116.132M102.236 190.086H56.5771M102.236 190.086L74.4436 167.753H56.5771V190.086M102.236 190.086V228.3M66.5029 204.479H62.0363V195.049H66.5029M66.5029 204.479V195.049M66.5029 204.479H70.9695M66.5029 195.049H70.9695M70.9695 204.479V195.049M70.9695 204.479H75.4361V195.049H70.9695M66.5029 219.367H62.0363V209.938H66.5029M66.5029 219.367V209.938M66.5029 219.367H70.9695M66.5029 209.938H70.9695M70.9695 219.367V209.938M70.9695 219.367H75.4361V209.938H70.9695M66.5029 233.263H62.0363V223.834H66.5029M66.5029 233.263V223.834M66.5029 233.263H70.9695M66.5029 223.834H70.9695M70.9695 233.263V223.834M70.9695 233.263H75.4361V223.834H70.9695M80.8953 242.693H97.7692M99.1478 187.605H56.5771M102.236 228.3V224.33H121.591L125.561 228.3H116.132M102.236 228.3V238.723M102.236 228.3H106.702M102.236 238.723H106.702M116.132 228.3H106.702M116.132 228.3V238.723M106.702 228.3V238.723M110.176 228.3V238.723M116.132 238.723H106.702M88.3397 204.479V195.049H92.8063V204.479H88.3397ZM88.3397 219.367V209.938H92.8063V219.367H88.3397Z" stroke="#FF6F43"/>
<path d="M147.894 239.715H199.012M147.894 229.293H181.146M55.5845 69.488H191.071M55.5845 81.399H198.02M55.5845 93.8062H187.101M55.5845 105.717H194.049M55.5845 118.621H177.175M147.894 234.752H191.071M55.5845 75.4454H191.071M55.5845 87.3564H198.02M55.5845 99.7636H187.101M55.5845 111.675H194.049M55.5845 124.578H177.175" stroke="white" stroke-width="0.5"/>
<path d="M195.042 16.8828H37.2217V259.072H225.812V47.6528M195.042 16.8828V47.6528H225.812M195.042 16.8828L225.812 47.6528" stroke="white"/>
<path d="M225.812 243.189H255.093V31.7699M224.323 1H66.5029V16.8813M224.323 1V31.7699H255.093M224.323 1L255.093 31.7699" stroke="white" stroke-width="0.5"/>
<path d="M157.82 211.922L239.211 130.53H293.5M57.5696 99.7602L21.8367 64.0273H0M50.1252 232.766L14.3924 268.499H0" stroke="white" stroke-width="0.5"/>
<circle cx="198.049" cy="208.925" r="16.8701" stroke="#FF6F43"/>
<circle cx="198.049" cy="208.923" r="11.9072" stroke="#FF6F43"/>
</svg>
