<svg width="536" height="524" viewBox="0 0 536 524" fill="none" xmlns="http://www.w3.org/2000/svg">
<path d="M11.2111 453V517.873M11.2111 517.873H498.604M11.2111 517.873L6.00391 523.466M11.2111 517.873L16.4183 512.281M498.604 517.873V453M498.604 517.873L493.397 523.466M498.604 517.873L503.811 512.281" stroke="white" stroke-width="0.5"/>
<path d="M525.6 71.4658V6.59248M525.6 6.59248H38.2071M525.6 6.59248L530.807 0.999954M525.6 6.59248L520.393 12.185M38.2071 6.59248V71.4658M38.2071 6.59248L43.4143 0.999954M38.2071 6.59248L32.9999 12.185" stroke="white" stroke-width="0.5"/>
<mask id="mask0" mask-type="alpha" maskUnits="userSpaceOnUse" x="0" y="55" width="536" height="399">
<rect y="55.001" width="536" height="398.171" fill="#0D0D0D"/>
</mask>
<g mask="url(#mask0)">
<path d="M254.988 259.049V437.498M254.988 259.049H270.249M254.988 259.049H239.727M254.988 437.498H270.249M254.988 437.498H239.727M377.077 259.049V437.498M377.077 259.049H361.816M377.077 259.049H392.338M377.077 437.498H361.816M377.077 437.498H392.338M316.032 259.049V437.498M316.032 259.049H300.771M316.032 259.049H331.293M316.032 437.498H300.771M316.032 437.498H331.293M346.554 259.049V437.498M346.554 259.049H331.293M346.554 259.049H361.816M346.554 437.498H331.293M346.554 437.498H361.816M285.51 259.049V437.498M285.51 259.049H300.771M285.51 259.049H270.249M285.51 437.498H300.771M285.51 437.498H270.249M300.771 259.049V437.498M270.249 259.049V437.498M331.293 437.498V259.049M361.816 259.049V437.498M438.121 437.498V259.049M438.121 437.498H422.86M438.121 437.498H453.382M438.121 259.049H422.86M438.121 259.049H453.382M407.599 259.049V437.498M407.599 259.049H392.338M407.599 259.049H422.86M407.599 437.498H392.338M407.599 437.498H422.86M392.338 437.498V259.049M422.86 259.049V437.498M468.643 437.498V259.049M468.643 437.498H483.904M468.643 437.498H453.382M468.643 259.049H483.904M468.643 259.049H453.382M483.904 259.049H499.166V437.498H483.904M483.904 259.049V437.498M453.382 437.498V259.049M132.899 259.049V437.498M132.899 259.049H117.638M132.899 259.049H148.16M132.899 437.498H117.638M132.899 437.498H148.16M71.8544 259.049V437.498M71.8544 259.049H56.5933M71.8544 259.049H87.1155M71.8544 437.498H56.5933M71.8544 437.498H87.1155M102.377 259.049V437.498M102.377 259.049H87.1155M102.377 259.049H117.638M102.377 437.498H87.1155M102.377 437.498H117.638M41.3322 259.049V437.498M41.3322 259.049H56.5933M41.3322 259.049H26.0711M41.3322 259.049H79.485H117.638M41.3322 437.498H56.5933M41.3322 437.498H26.0711M56.5933 259.049V437.498M26.0711 259.049H10.81V437.498H26.0711M26.0711 259.049V437.498M87.1155 437.498V259.049M117.638 259.049V437.498M193.943 437.498V259.049M193.943 437.498H178.682M193.943 437.498H209.204M193.943 259.049H178.682M193.943 259.049H209.204M163.421 259.049V437.498M163.421 259.049H148.16M163.421 259.049H178.682M163.421 437.498H148.16M163.421 437.498H178.682M148.16 437.498V259.049M178.682 259.049V437.498M224.466 437.498V259.049M224.466 437.498H239.727M224.466 437.498H209.204M224.466 259.049H239.727M224.466 259.049H209.204M239.727 259.049V437.498M209.204 437.498V259.049" stroke="white" stroke-width="0.5"/>
<path d="M282.323 81.1313V259.13M282.323 81.1313H297.584M282.323 81.1313H267.062M282.323 259.13H297.584M282.323 259.13H267.062M404.412 81.1313V259.13M404.412 81.1313H389.15M404.412 81.1313H419.673M404.412 259.13H389.15M404.412 259.13H419.673M343.367 81.1313V259.13M343.367 81.1313H328.106M343.367 81.1313H358.628M343.367 259.13H328.106M343.367 259.13H358.628M373.889 81.1313V259.13M373.889 81.1313H358.628M373.889 81.1313H389.15M373.889 259.13H358.628M373.889 259.13H389.15M312.845 81.1313V259.13M312.845 81.1313H328.106M312.845 81.1313H297.584M312.845 259.13H328.106M312.845 259.13H297.584M328.106 81.1313V259.13M297.584 81.1313V259.13M358.628 259.13V81.1313M389.15 81.1313V259.13M465.456 259.13V81.1313M465.456 259.13H450.195M465.456 259.13H480.717M465.456 81.1313H450.195M465.456 81.1313H480.717M434.934 81.1313V259.13M434.934 81.1313H419.673M434.934 81.1313H450.195M434.934 259.13H419.673M434.934 259.13H450.195M419.673 259.13V81.1313M450.195 81.1313V259.13M495.978 259.13V81.1313M495.978 259.13H511.239M495.978 259.13H480.717M495.978 81.1313H511.239M495.978 81.1313H480.717M511.239 81.1313H526.5V259.13H511.239M511.239 81.1313V259.13M480.717 259.13V81.1313M160.234 81.1313V259.13M160.234 81.1313H144.973M160.234 81.1313H175.495M160.234 259.13H144.973M160.234 259.13H175.495M99.1893 81.1313V259.13M99.1893 81.1313H83.9283M99.1893 81.1313H114.45M99.1893 259.13H83.9283M99.1893 259.13H114.45M129.712 81.1313V259.13M129.712 81.1313H114.45M129.712 81.1313H144.973M129.712 259.13H114.45M129.712 259.13H144.973M68.6672 81.1313V259.13M68.6672 81.1313H83.9283M68.6672 81.1313H53.406M68.6672 81.1313H106.82H144.973M68.6672 259.13H83.9283M68.6672 259.13H53.406M83.9283 81.1313V259.13M53.406 81.1313H38.1449V259.13H53.406M53.406 81.1313V259.13M114.45 259.13V81.1313M144.973 81.1313V259.13M221.278 259.13V81.1313M221.278 259.13H206.017M221.278 259.13H236.539M221.278 81.1313H206.017M221.278 81.1313H236.539M190.756 81.1313V259.13M190.756 81.1313H175.495M190.756 81.1313H206.017M190.756 259.13H175.495M190.756 259.13H206.017M175.495 259.13V81.1313M206.017 81.1313V259.13M251.8 259.13V81.1313M251.8 259.13H267.062M251.8 259.13H236.539M251.8 81.1313H267.062M251.8 81.1313H236.539M267.062 81.1313V259.13M236.539 259.13V81.1313" stroke="white" stroke-width="0.5"/>
<path d="M499.065 259.5V437.415H486.228H473.391H460.555H447.718H434.881H422.044H409.207H396.37H383.533H370.696H357.859H345.022H332.185H319.348H306.511H293.674H280.837H268H255.163H242.326H229.489H216.652H203.815H190.978H178.141H165.304H152.467H139.63H126.793H113.956H101.119H88.2822" stroke="#FB6233" stroke-width="1.3"/>
<path d="M526.5 81.1313V259.13H511.239H495.978H480.717H465.456H450.195H434.934H419.673H404.412H389.15H373.889H358.628H343.367H328.106H312.845H297.584H282.323H267.062H251.8H236.539H221.278H206.017H190.756H175.495H160.234H144.973H129.712H114.45H99.1894H83.9283H68.6672H53.4061H38.145V81.1313H53.4061H68.6672H83.9283H99.1894H114.45H129.712H144.973H160.234H175.495H190.756H206.017H221.278H236.539H251.8H267.062H282.323H297.584H312.845H328.106H343.367H358.628H373.889H389.15H404.412H419.673H434.934H450.195H465.456H480.717H495.978H511.239H526.5Z" stroke="#FB6233"/>
<path d="M499.166 259.5V437.498H483.904H468.643H453.382H438.121H422.86H407.599H392.338H377.077H361.816H346.554H331.293H316.032H300.771H285.51H270.249H254.988H239.727H224.466H209.204H193.943H178.682H163.421H148.16H132.899H117.638H102.377H87.1155H71.8544H56.5933H41.3322H26.0711H10.81V259.5H26.0711H41.3322H56.5933H71.8544H87.1155H102.377H117.638H132.899H148.16H163.421H178.682H193.943H209.204H224.466H239.727H254.988H270.249H285.51H300.771H316.032H331.293H346.554H361.816H377.077H392.338H407.599H422.86H438.121H453.382H468.643H483.904H499.166Z" stroke="#FB6233"/>
<rect x="-0.5" y="0.5" width="127.82" height="147.639" transform="matrix(-1 0 0 1 371.047 94.645)" fill="#0D0D0D" stroke="#FF6F43"/>
<rect x="-0.5" y="0.5" width="130.523" height="147.639" transform="matrix(-1 0 0 1 489.057 273.913)" fill="#0D0D0D" stroke="#FF6F43"/>
<path d="M385.235 289H373V301.774M385.235 409H373V396.226M464.765 289H477V301.774M464.765 409H477V396.226" stroke="white"/>
<path d="M254.938 129.771H273.405V133.374H258.992V148.238H254.938V129.771Z" stroke="#FF6F43" stroke-width="0.5"/>
<path d="M254.938 205.442H273.405V201.838H258.992V186.974H254.938V205.442Z" stroke="#FF6F43" stroke-width="0.5"/>
<path d="M360.336 129.771H341.869V133.374H356.283V148.238H360.336V129.771Z" stroke="#FF6F43" stroke-width="0.5"/>
<path d="M360.336 205.442H341.869V201.838H356.283V186.974H360.336V205.442Z" stroke="#FF6F43" stroke-width="0.5"/>
<path d="M293.224 169.409H307.862M322.501 169.409H307.862M307.862 169.409V152.744M307.862 169.409V186.075" stroke="white"/>
<path d="M262.145 99.1436H247.731V114.007M262.145 238.774H247.731V223.91M353.13 99.1436H367.543V114.007M353.13 238.774H367.543V223.91" stroke="white"/>
</g>
</svg>
