<svg width="353" height="363" viewBox="0 0 353 363" fill="none" xmlns="http://www.w3.org/2000/svg">
<mask id="mask0" mask-type="alpha" maskUnits="userSpaceOnUse" x="0" y="0" width="353" height="363">
<rect width="353" height="363" fill="#0D0D0D"/>
</mask>
<g mask="url(#mask0)">
<path d="M108.756 317.111C106.629 317.111 100.485 315.921 97.6782 315.326C96.0364 300.164 108.083 286.705 119.833 275.474M108.756 317.111V310.862C108.756 308.397 110.74 306.398 113.187 306.398H132.238C134.685 306.398 136.669 308.397 136.669 310.862V321.572M108.756 317.111V367.002M136.669 367.002V321.572M151.763 166.242C152.543 163.149 153.413 160.324 154.391 157.849M151.763 166.242C151.128 168.757 150.553 171.45 150.026 174.277M151.763 166.242H178.283M154.391 157.849C157.027 151.178 160.449 147.049 165.023 147.049C169.597 147.049 173.019 151.178 175.655 157.849M154.391 157.849C156.31 157.969 161.123 158.208 165.023 158.208C168.923 158.208 173.736 157.969 175.655 157.849M149.517 205.076V218.913M149.517 295.686H162.366V325.592M149.517 295.686V270.244M149.517 295.686C143.027 295.686 141.984 312.397 142.307 322.87M142.429 325.592V333.18H147.745V341.661H162.366V328.495M142.429 325.592H162.366M142.429 325.592C142.379 324.75 142.337 323.836 142.307 322.87M162.366 325.592V328.495M149.517 270.244H162.366M149.517 270.244V218.913M149.517 218.913H162.366M150.026 174.277C149.068 179.425 148.272 185.018 147.578 190.792M150.026 174.277H142.429M147.578 190.792H142.429M147.578 190.792C145.491 208.153 144.325 227.156 142.429 240.656M119.833 275.474C127.108 268.52 134.269 262.42 137.997 257.299C138.835 256.148 139.565 254.379 140.213 252.108M119.833 275.474V190.792M119.833 190.792H118.946V174.277H119.833M119.833 190.792H140.213M119.833 174.277H140.213M119.833 174.277V152.405M119.833 149.727C122.491 139.759 128.251 119.821 130.023 119.821C131.795 119.821 137.555 139.759 140.213 149.727M119.833 149.727H140.213M119.833 149.727V152.405M140.213 149.727V152.405M140.213 174.277V152.405M140.213 174.277H142.429M119.833 152.405H140.213M142.429 174.277V134.105M142.429 134.105H187.618M142.429 134.105V122.946M142.429 190.792V240.656M142.429 190.792H140.213M142.429 240.656C141.793 245.181 141.075 249.088 140.213 252.108M140.213 190.792V252.108M221.29 317.111C223.417 317.111 229.561 315.921 232.368 315.326C234.01 300.164 221.963 286.705 210.214 275.474M221.29 317.111V310.862C221.29 308.397 219.306 306.398 216.859 306.398H197.808C195.361 306.398 193.377 308.397 193.377 310.862V367.002M221.29 317.111V367.002M178.283 166.242C177.503 163.149 176.633 160.324 175.655 157.849M178.283 166.242C178.918 168.757 179.493 171.45 180.02 174.277M180.529 205.076V218.913M180.529 295.686H167.68V325.592M180.529 295.686C187.618 295.686 188.208 315.623 187.618 325.592M180.529 295.686V270.244M187.618 325.592V333.18H182.301V341.661H167.68V328.495M187.618 325.592H167.68M167.68 325.592V328.495M180.529 270.244H167.68M180.529 270.244V218.913M180.529 218.913H167.68M180.02 174.277C180.978 179.425 181.774 185.018 182.468 190.792M180.02 174.277H187.618M182.468 190.792H187.618M182.468 190.792C184.555 208.153 185.722 227.156 187.618 240.656M210.214 275.474C202.938 268.52 195.777 262.42 192.05 257.299C191.211 256.148 190.481 254.379 189.833 252.108M210.214 275.474V190.792M210.214 190.792H211.1V174.277H210.214M210.214 190.792H189.833M210.214 174.277H189.833M210.214 174.277V152.405M210.214 149.727C207.555 139.759 201.795 119.821 200.023 119.821C198.251 119.821 192.491 139.759 189.833 149.727M210.214 149.727H189.833M210.214 149.727V152.405M189.833 149.727V152.405M189.833 174.277V152.405M189.833 174.277H187.618M210.214 152.405H189.833M187.618 174.277V134.105M187.618 134.105V122.946M187.618 190.792V240.656M187.618 190.792H189.833M187.618 240.656C188.253 245.181 188.971 249.088 189.833 252.108M189.833 190.792V252.108M142.429 122.946V111.787C142.551 105.681 143.469 97.0435 145.741 89.0228M142.429 122.946H187.618M187.618 122.946V111.787C187.496 105.681 186.577 97.0435 184.305 89.0228M145.741 89.0228C148.949 77.6952 154.854 67.5977 165.023 67.5977C175.192 67.5977 181.097 77.6952 184.305 89.0228M145.741 89.0228H184.305M136.669 321.572L142.307 322.87M193.377 321.572L187.739 322.87M162.366 328.495H167.68M165.023 174.277C161.923 174.277 153.062 175.616 152.619 180.526C152.176 185.436 159.982 184.097 165.023 184.097C170.064 184.097 177.87 185.436 177.427 180.526C176.984 175.616 168.123 174.277 165.023 174.277ZM115.25 312.201C115.25 313.434 114.258 314.433 113.034 314.433C111.811 314.433 110.819 313.434 110.819 312.201C110.819 310.969 111.811 309.969 113.034 309.969C114.258 309.969 115.25 310.969 115.25 312.201ZM200.317 312.201C200.317 313.434 199.325 314.433 198.102 314.433C196.878 314.433 195.886 313.434 195.886 312.201C195.886 310.969 196.878 309.969 198.102 309.969C199.325 309.969 200.317 310.969 200.317 312.201ZM134.744 312.201C134.744 313.434 133.752 314.433 132.529 314.433C131.305 314.433 130.314 313.434 130.314 312.201C130.314 310.969 131.305 309.969 132.529 309.969C133.752 309.969 134.744 310.969 134.744 312.201ZM218.925 312.201C218.925 313.434 217.934 314.433 216.71 314.433C215.487 314.433 214.495 313.434 214.495 312.201C214.495 310.969 215.487 309.969 216.71 309.969C217.934 309.969 218.925 310.969 218.925 312.201ZM133.006 282.632C133.006 285.738 130.488 288.257 127.381 288.257C124.275 288.257 121.757 285.738 121.757 282.632C121.757 279.526 124.275 277.007 127.381 277.007C130.488 277.007 133.006 279.526 133.006 282.632ZM207.424 282.632C207.424 285.738 204.906 288.257 201.8 288.257C198.693 288.257 196.175 285.738 196.175 282.632C196.175 279.526 198.693 277.007 201.8 277.007C204.906 277.007 207.424 279.526 207.424 282.632Z" stroke="white" stroke-width="0.5"/>
<path d="M142.43 174.06V134.105M142.43 134.105H187.619M142.43 134.105V122.946M142.43 191.003V240.656M187.619 174.06V134.105M187.619 134.105V122.946M187.619 191.003V240.656M142.43 122.946V111.787C142.552 105.681 143.471 97.0435 145.742 89.0228M142.43 122.946H187.619M187.619 122.946V111.787C187.497 105.681 186.578 97.0435 184.306 89.0228M145.742 89.0228C148.95 77.6952 154.855 67.5977 165.024 67.5977C175.193 67.5977 181.099 77.6952 184.306 89.0228M145.742 89.0228H184.306" stroke="#FF6F43" stroke-width="0.5"/>
<path d="M108.756 317.109C106.629 317.109 100.485 315.919 97.6782 315.324C96.0364 300.162 108.083 286.703 119.833 275.472C127.108 268.518 134.269 262.418 137.997 257.297C138.835 256.146 139.565 254.377 140.213 252.106C141.075 249.087 141.793 245.18 142.429 240.654C144.325 227.155 145.491 208.151 147.578 190.79C148.272 185.016 149.068 179.423 150.026 174.275C150.553 171.448 151.763 166.241 151.763 166.241C151.763 166.241 153.413 160.322 154.391 157.848C157.027 151.177 160.449 147.047 165.023 147.047C169.597 147.047 173.019 151.177 175.655 157.848C176.633 160.322 178.283 166.241 178.283 166.241C178.283 166.241 179.493 171.448 180.02 174.275C180.978 179.423 181.774 185.016 182.468 190.79C184.555 208.151 185.722 227.155 187.618 240.654C188.253 245.18 188.971 249.087 189.833 252.106C190.481 254.377 191.211 256.146 192.05 257.297C195.777 262.418 202.938 268.518 210.214 275.472C221.963 286.703 234.01 300.162 232.368 315.324C229.561 315.919 223.417 317.109 221.29 317.109M142.429 325.59V333.178H147.745V341.659H162.366V328.493M142.429 325.59H162.366M142.429 325.59C142.379 324.748 142.337 323.835 142.307 322.868M162.366 325.59V295.684H149.517C143.027 295.684 141.984 312.395 142.307 322.868M162.366 325.59V328.493M187.618 325.59V333.178H182.301V341.659H167.68V328.493M187.618 325.59H167.68M187.618 325.59C188.208 315.621 187.618 295.684 180.529 295.684H167.68V325.59M167.68 325.59V328.493M136.669 321.57L142.307 322.868M193.377 321.57L187.739 322.868M162.366 328.493H167.68M133.006 282.63C133.006 285.737 130.488 288.255 127.381 288.255C124.275 288.255 121.757 285.737 121.757 282.63C121.757 279.524 124.275 277.006 127.381 277.006C130.488 277.006 133.006 279.524 133.006 282.63ZM207.424 282.63C207.424 285.737 204.906 288.255 201.8 288.255C198.693 288.255 196.175 285.737 196.175 282.63C196.175 279.524 198.693 277.006 201.8 277.006C204.906 277.006 207.424 279.524 207.424 282.63Z" stroke="white"/>
<path d="M136.669 367.002V321.572V310.862C136.669 308.397 134.685 306.398 132.238 306.398H113.187C110.74 306.398 108.756 308.397 108.756 310.862V317.111V367.002M193.378 367.002V310.862C193.378 308.397 195.361 306.398 197.808 306.398H216.86C219.307 306.398 221.29 308.397 221.29 310.862V317.111V367.002M115.25 312.201C115.25 313.434 114.258 314.433 113.035 314.433C111.811 314.433 110.819 313.434 110.819 312.201C110.819 310.968 111.811 309.969 113.035 309.969C114.258 309.969 115.25 310.968 115.25 312.201ZM200.317 312.201C200.317 313.434 199.325 314.433 198.102 314.433C196.878 314.433 195.887 313.434 195.887 312.201C195.887 310.968 196.878 309.969 198.102 309.969C199.325 309.969 200.317 310.968 200.317 312.201ZM134.744 312.201C134.744 313.434 133.753 314.433 132.529 314.433C131.306 314.433 130.314 313.434 130.314 312.201C130.314 310.968 131.306 309.969 132.529 309.969C133.753 309.969 134.744 310.968 134.744 312.201ZM218.926 312.201C218.926 313.434 217.934 314.433 216.71 314.433C215.487 314.433 214.495 313.434 214.495 312.201C214.495 310.968 215.487 309.969 216.71 309.969C217.934 309.969 218.926 310.968 218.926 312.201Z" stroke="#FF6F43"/>
<path d="M141.659 67.596H34.596M34.596 67.596V300.37M34.596 67.596L32 70.192M34.596 67.596L37.192 65M112.67 276.573H74.4499M74.4499 276.573V119.516M74.4499 276.573L71.8539 279.169M74.4499 276.573L77.0458 273.977M112.67 119.516H74.4499M74.4499 119.516L71.8539 122.112M74.4499 119.516L77.0458 116.92M34.596 300.37H91.4699M34.596 300.37L32 302.966M34.596 300.37L37.192 297.774M219.539 146.774H291.507M291.507 146.774V341.905M291.507 146.774L288.911 149.37M291.507 146.774L294.103 144.178M291.507 341.905H235.547M291.507 341.905L288.911 344.501M291.507 341.905L294.103 339.309" stroke="white" stroke-width="0.5"/>
</g>
</svg>
